<svg id="Capa_1" enable-background="new 0 0 512 512" height="40" viewBox="0 0 512 512" width="40" xmlns="http://www.w3.org/2000/svg"><path d="m490.108 188.403c-20.851-15.637-49.688-13.947-68.566 4.021l-88.928 84.627c-6.925-20.902-26.643-36.028-49.839-36.028h-131.141c-2.999 0-5.93.899-8.413 2.581l-52.939 35.859-6.301-12.287c-3.733-7.28-12.615-10.226-19.957-6.62l-55 26.998c-7.542 3.702-10.566 12.878-6.724 20.334l101 195.983c3.809 7.389 12.89 10.254 20.239 6.445l54-27.998c7.331-3.801 10.21-12.812 6.442-20.159l-5.587-10.894 22.797-15.259h99.031c24.08 0 47.359-10.053 63.868-27.582l132.825-141.029c21.736-23.079 18.546-59.979-6.807-78.992zm-367.029 288.361-87.105-169.022 28.039-13.763 86.46 168.583zm351.996-229.935-132.826 141.03c-10.863 11.535-26.182 18.15-42.028 18.15h-103.587c-2.971 0-5.875.882-8.344 2.534l-23.679 15.849-60.538-118.039 52.163-35.333h126.538c12.406 0 22.5 10.092 22.5 22.498s-10.093 22.498-22.5 22.498h-87.5c-8.284 0-15 6.715-15 14.999 0 8.283 6.716 14.999 15 14.999h87.5c14.771 0 28.127-6.14 37.675-15.991.054-.05.112-.091.165-.142l121.608-115.728c8.229-7.83 20.797-8.568 29.884-1.752 11.069 8.299 12.475 24.335 2.969 34.428z"/><path d="m209.403 170.567c27.091 23.092 53.852 37.967 54.978 38.588 4.515 2.493 9.992 2.493 14.506 0 1.126-.622 27.887-15.496 54.978-38.588 38.333-32.674 57.769-64.821 57.769-95.546 0-64.71-76.11-99.505-120-55.067-43.854-44.401-120-9.724-120 55.067 0 30.725 19.436 62.872 57.769 95.546zm15.107-140.545c13.869 0 26.14 7.847 33.955 22.177 5.679 10.413 20.664 10.403 26.338 0 9.615-17.628 25.969-25.446 43.752-20.913 16.465 4.197 33.079 19.348 33.079 43.734 0 40.746-59.361 85.105-89.943 103.627-33.957-20.796-90.057-63.851-90.057-103.627 0-28.424 22.765-44.998 42.876-44.998z"/></svg>